<?xml version="1.0" standalone="no"?><!DOCTYPE svg PUBLIC "-//W3C//DTD SVG 1.1//EN" "http://www.w3.org/Graphics/SVG/1.1/DTD/svg11.dtd"><svg t="1712146685932" class="icon" viewBox="0 0 1024 1024" version="1.1" xmlns="http://www.w3.org/2000/svg" p-id="18388" xmlns:xlink="http://www.w3.org/1999/xlink" width="200" height="200" fill="currentColot"><path d="M864 884H160c-13.6 0-24-10.4-24-24s10.4-24 24-24h704c13.6 0 24 10.4 24 24s-10.4 24-24 24zM512 787.2c-6.4 0-12.8-2.4-17.6-7.2l-293.6-304c-6.4-7.2-8.8-16.8-4.8-26.4 4-8.8 12.8-14.4 22.4-14.4h166.4V140c0-13.6 10.4-24 24-24h206.4c13.6 0 24 10.4 24 24v295.2h166.4c9.6 0 18.4 5.6 22.4 14.4s1.6 19.2-4.8 26.4l-293.6 304c-4.8 4.8-11.2 7.2-17.6 7.2z m-236.8-304L512 728.8l236.8-245.6H615.2c-13.6 0-24-10.4-24-24V164H432.8v295.2c0 13.6-10.4 24-24 24H275.2z" fill="#999999" p-id="18389"></path></svg>